#!OML:ASF F:\VICON\USERDATA\INSTALL\rory3\rory3.ASF
:FULLY-SPECIFIED
:DEGREES
85
root 0.476424088770806 18.123362839604912 16.140118146270932 7.159357827895287 -1.3500529677647148 -1.7558891104976895
lfemur -7.967319733886891 8.088662775449183 -17.049235436217046
ltibia 12.163468169511201
lfoot -8.152893873247494 5.310355281612623
ltoes -6.343823742751481
rfemur -9.071628902696146 -1.976906241106208 20.065931695999087
rtibia 14.504313224878764
rfoot -11.96649518417571 1.3329850243120571
rtoes 13.385725085503083
lowerback -5.082374682545807 -0.08710916548067524 -0.07100861549923687
upperback 0.7832679441765884 -0.18248511433665673 1.225225158967628
thorax 5.3209762856362595 -0.10664818038128043 1.3698129254864355
lowerneck -10.831223452652337 0.046355412731935414 -2.121732876586198
upperneck 29.872294628471987 0.12024144871675929 2.062945486971422
head 11.852156233436009 -0.017230651749093124 1.0773839972762946
lclavicle 1.3240620525512054e-15 -1.0971313399048731e-15
lhumerus -23.5049728275523 -5.4051651008624795 89.89917989219494
lradius 22.16536807518088
lwrist 6.548874251214745
lhand -22.923271163955203 -4.547507243475125
lfingers 7.125019999999998
lthumb 3.5171570186551095 25.412848386768307
rclavicle 1.3240620525512054e-15 -1.0971313399048731e-15
rhumerus -24.812648713576586 -13.308313965712546 -81.0583724998292
rradius 25.59092528190154
rwrist 36.57082199899516
rhand -17.224347136156343 -26.719455023479338
rfingers 7.125019999999998
rthumb 9.018671676031829 -56.508945104888376
86
root 0.47742076334616346 18.090235700039912 15.78304045658995 7.075921803438611 -1.3179936942938781 -1.7625108225537303
lfemur -8.39034360887144 8.049693299737898 -17.10809599464324
ltibia 12.485941546695184
lfoot -8.267297474992132 5.242920043289809
ltoes -6.469272964931731
rfemur -9.426232382563267 -2.006451990477732 20.04885065640264
rtibia 14.790990156589835
rfoot -12.098187760913895 1.0927641878285002
rtoes 13.075771657009204
lowerback -5.060940692727312 -0.08801454783533416 -0.05090435974291274
upperback 0.7387624824475214 -0.18471701757584155 1.256523088473144
thorax 5.204729466415347 -0.10612634244060273 1.3756709112112526
lowerneck -10.92160444047799 0.052445181775161526 -2.1450321646899337
upperneck 29.197999992572395 0.14714899830828676 2.0268890399091437
head 11.62582340962673 -0.008403986355552201 1.0707851887710569
lclavicle 1.246931344240854e-15 -1.1817237521289819e-15
lhumerus -23.965915034946764 -4.892403479111048 89.78724652764194
lradius 21.529397940973762
lwrist 5.813950714914918
lhand -22.88616164722394 -4.544879138837723
lfingers 7.125019999999998
lthumb 3.552996129972681 25.415289935395297
rclavicle 1.246931344240854e-15 -1.1817237521289819e-15
rhumerus -25.008364012598765 -14.039788234007661 -80.88826729468241
rradius 25.027753845080884
rwrist 36.8669726916755
rhand -17.23127431004535 -26.712258961240583
rfingers 7.125019999999998
rthumb 9.011983445214007 -56.5017849353201
87
root 0.4790495547619103 18.07092460422243 15.451760082761647 7.077172489225239 -1.2785511513659609 -1.7673379614844504
lfemur -8.70737527252871 8.026256417788531 -17.157978071119594
ltibia 12.807546529517184
lfoot -8.309277482991261 5.228464800031386
ltoes -6.440743158785658
rfemur -9.681811617343232 -2.021176166723163 20.06792496579849
rtibia 15.088062677917202
rfoot -12.151498974062802 0.9073771279698706
rtoes 12.912184646729731
lowerback -4.993957799112661 -0.07640805601021294 -0.02790094005281346
upperback 0.6895686227182336 -0.17041614418893425 1.2855589148396864
thorax 5.1135990954657 -0.09752567327618347 1.3825158647315472
lowerneck -11.015006563395742 0.052687275832259045 -2.1647339688265603
upperneck 28.625214764690536 0.16403195310704807 2.0045469069096886
head 11.435101168584374 -0.0016458576041228842 1.0658450590306834
lclavicle 1.2253153636748569e-15 -1.205420223043939e-15
lhumerus -24.473658378739234 -4.298999976942419 89.65242088217387
lradius 20.910080915465837
lwrist 5.078304421902631
lhand -22.86915029585675 -4.53747088805148
lfingers 7.125019999999998
lthumb 3.5694274179232526 25.422637563654387
rclavicle 1.2253153636748569e-15 -1.205420223043939e-15
rhumerus -25.169590505484983 -14.706473791141317 -80.66929318140006
rradius 24.47671685783104
rwrist 37.22207218173685
rhand -17.210868048421226 -26.69612374464648
rfingers 7.125019999999998
rthumb 9.031671704274103 -56.48505294139029
88
root 0.4812858290721416 18.065938600248597 15.19610541928092 7.116535980562176 -1.2405590602483065 -1.7720363082942157
lfemur -8.854627271571765 8.014906607165285 -17.18953821608879
ltibia 13.081411490021704
lfoot -8.286896626475919 5.266818864138261
ltoes -6.241423361992004
rfemur -9.77334035665651 -2.0156205058723726 20.100164652501704
rtibia 15.341828417595059
rfoot -12.131638580099501 0.7934607533834939
rtoes 12.923178782940555
lowerback -4.923960580181702 -0.05224643981510057 0.0025829844030403892
upperback 0.6520217134390083 -0.1395646663198231 1.3082523909328274
thorax 5.088702136539505 -0.08107018189864634 1.3853931006898195
lowerneck -11.078216108242756 0.051810036643839014 -2.1813605518190777
upperneck 28.316671876647433 0.17661936207352805 1.995896404871468
head 11.339915422829428 0.0033663468963859022 1.0640841803750067
lclavicle 1.2540296490742369e-15 -1.1739039226176551e-15
lhumerus -25.001010319896285 -3.7234917226501905 89.52284674810731
lradius 20.406083604017272
lwrist 4.377170151765605
lhand -22.865055470480392 -4.5203578920048955
lfingers 7.125019999999998
lthumb 3.5733839661811237 25.43961422215413
rclavicle 1.2540296490742369e-15 -1.1739039226176551e-15
rhumerus -25.317157120453523 -15.267498240307964 -80.43615636066066
rradius 24.023620219644368
rwrist 37.56288737278821
rhand -17.14791692283314 -26.669995967888315
rfingers 7.125019999999998
rthumb 9.092410443448218 -56.457147182480085
89
root 0.48744932162382143 18.08352144706531 15.087070549164475 7.263044994893583 -1.2050984696931701 -1.7661628477397204
lfemur -8.754942621638042 8.056692968167624 -17.192244234555968
ltibia 13.632477996517762
lfoot -8.143921681773334 5.425088511599018
ltoes -5.905192352761012
rfemur -9.617283490228704 -1.9734704626560289 20.156487576125006
rtibia 15.87104170684112
rfoot -11.981907132346855 0.7996506317537211
rtoes 13.080379124173227
lowerback -4.7448175754843795 -0.009168571912944665 0.05147014751828083
upperback 0.6749801117301633 -0.08522868825920589 1.3286704687273543
thorax 5.167928514922457 -0.05230834524863158 1.3915031096670503
lowerneck -11.079051539054028 0.062504083694538 -2.1913156381135814
upperneck 28.32273512605804 0.21037973279532823 2.00217630940858
head 11.357387834853103 0.014283668914977482 1.067356933922793
lclavicle 1.420665125952526e-15 -9.909195876784242e-16
lhumerus -25.394476200347594 -3.0534175616002437 89.4934812675473
lradius 20.109480500061615
lwrist 3.880506556834099
lhand -22.834384541212536 -4.455014024126131
lfingers 7.125019999999998
lthumb 3.6030012938347227 25.504385859198045
rclavicle 1.420665125952526e-15 -9.909195876784242e-16
rhumerus -25.39723724563974 -15.57078467031252 -80.17206308652717
rradius 23.80929318711478
rwrist 37.888418131303446
rhand -17.015457831525186 -26.619487311929298
rfingers 7.125019999999998
rthumb 9.220207859640794 -56.40287155675545
90
root 0.4927387364460991 18.06976115950971 14.600947165633867 7.278160666694362 -1.2159610096581606 -1.7731095106878823
lfemur -8.98783557532867 8.08979905919739 -17.226089335046275
ltibia 13.920362287970624
lfoot -8.271031091909858 5.520434939678215
ltoes -5.800115292921325
rfemur -9.785592812898216 -1.9980784292616562 20.18345132357549
rtibia 16.122464865763533
rfoot -12.110377166175255 0.6705236270381545
rtoes 12.968256698714244
lowerback -4.6863991140677514 0.02013444670296482 0.07210993405375382
upperback 0.6793076788553511 -0.05069465150969149 1.3318026970914947
thorax 5.163598103698404 -0.033818095796491275 1.3812673914100058
lowerneck -11.14953129387551 0.06839607040652779 -2.2064473553755577
upperneck 28.234981295237635 0.23587547154616348 1.977966678226897
head 11.346938858815664 0.02188641398640745 1.0645957983090686
lclavicle 1.4125649320613619e-15 -9.99911594475306e-16
lhumerus -25.88295872781385 -2.7662355432437016 89.41337130708257
lradius 19.862766791815268
lwrist 3.3249446221510097
lhand -22.8425719135918 -4.418255178110254
lfingers 7.125019999999998
lthumb 3.5950918010478734 25.54065776245083
rclavicle 1.4125649320613619e-15 -9.99911594475306e-16
rhumerus -25.543585577438886 -15.837346366070975 -80.02831997616015
rradius 23.669592381895896
rwrist 37.96247902717008
rhand -16.876164771155736 -26.582948537180677
rfingers 7.125019999999998
rthumb 9.354596361876869 -56.36245246653028
91
root 0.4967116502323277 18.038479978088198 14.009323684906404 7.319838138841449 -1.231702912210093 -1.783082057573122
lfemur -9.309835395939091 8.113883141456782 -17.270636304978833
ltibia 14.17884190951083
lfoot -8.540908801826383 5.6434528260572625
ltoes -5.815484325017335
rfemur -10.051801834529355 -2.0218862943400953 20.214123466383406
rtibia 16.34581832637965
rfoot -12.389508741500347 0.48433261945090544
rtoes 12.76069255416635
lowerback -4.622953579756377 0.03564144278779314 0.08092685873048971
upperback 0.6771027737865793 -0.03294176886278613 1.3352142116929087
thorax 5.120358533608233 -0.023989384736359948 1.375973397241092
lowerneck -11.25533412407633 0.07430588156793141 -2.2196040708837574
upperneck 28.059735976597683 0.2616031309231683 1.942397365915528
head 11.306049869981662 0.02951371185709685 1.0584060978211234
lclavicle 1.3771595364200376e-15 -1.0388961730694557e-15
lhumerus -26.301520057080193 -2.6905848155054617 89.3393213650255
lradius 19.68794744497952
lwrist 2.863440596831517
lhand -22.87138504893293 -4.395868509832061
lfingers 7.125019999999998
lthumb 3.5672644002352922 25.562818671635345
rclavicle 1.3771595364200376e-15 -1.0388961730694557e-15
rhumerus -25.646887278016102 -15.943186328713349 -79.93977365783664
rradius 23.649947121896048
rwrist 37.90342310516852
rhand -16.75353282639501 -26.559676853709494
rfingers 7.125019999999998
rthumb 9.472912320482454 -56.33595333241889
